<svg width="369" height="109" viewBox="0 0 369 109" fill="none" xmlns="http://www.w3.org/2000/svg">
<path d="M21.517 71.8125C14.4545 71.8125 9.26704 70.0313 5.95454 66.4688C2.64204 62.9063 0.985794 57 0.985794 48.75C0.985794 42.1875 2.07954 35.125 4.26704 27.5625C6.51704 20 10.0795 13.5313 14.9545 8.15625C19.892 2.71875 26.142 0 33.7045 0C38.392 0 42.1733 1.03125 45.0483 3.09375C47.9233 5.15625 49.3608 8.3125 49.3608 12.5625C49.3608 15.25 48.8295 17.375 47.767 18.9375C46.7045 20.4375 45.0483 21.1875 42.7983 21.1875C40.5483 21.1875 38.767 20.375 37.4545 18.75C38.5795 18.1875 39.5795 17.0625 40.4545 15.375C41.3295 13.6875 41.767 11.9375 41.767 10.125C41.767 8.4375 41.2983 7.0625 40.3608 6C39.4858 4.9375 38.0483 4.40625 36.0483 4.40625C32.7358 4.40625 29.5795 6.6875 26.5795 11.25C23.5795 15.75 21.142 21.4375 19.267 28.3125C17.4545 35.1875 16.5483 41.8125 16.5483 48.1875C16.5483 52.9375 17.3608 56.5625 18.9858 59.0625C20.6108 61.5625 23.5483 62.8125 27.7983 62.8125C31.4858 62.8125 34.892 62 38.017 60.375C41.142 58.75 43.8295 56.4375 46.0795 53.4375L48.2358 54.375C46.6733 58.3125 44.3608 61.5938 41.2983 64.2188C38.2358 66.8438 34.9545 68.7813 31.4545 70.0313C27.9545 71.2188 24.642 71.8125 21.517 71.8125Z" fill="#D6BA85"/>
<path d="M59.4924 70.6875C54.8674 70.6875 51.2111 69.5 48.5236 67.125C45.8361 64.75 44.4924 61 44.4924 55.875C44.4924 51.625 45.3674 46.9063 47.1174 41.7188C48.8674 36.5313 51.6799 32.0625 55.5549 28.3125C59.4299 24.5 64.3049 22.5938 70.1799 22.5938C78.1799 22.5938 82.1799 27.5938 82.1799 37.5938V37.6875C82.3674 37.75 82.7111 37.7813 83.2111 37.7813C85.2736 37.7813 87.6486 37.25 90.3361 36.1875C93.0236 35.0625 95.4611 33.7188 97.6486 32.1563L98.4924 34.6875C96.6799 36.625 94.3049 38.2813 91.3674 39.6563C88.4924 40.9688 85.3361 41.9063 81.8986 42.4688C81.3986 48.1563 80.1174 53.125 78.0549 57.375C75.9924 61.625 73.3361 64.9063 70.0861 67.2188C66.8361 69.5313 63.3049 70.6875 59.4924 70.6875ZM63.2424 62.25C64.7424 62.25 66.2424 61.4063 67.7424 59.7188C69.2424 57.9688 70.5549 55.625 71.6799 52.6875C72.8049 49.6875 73.6174 46.375 74.1174 42.75C72.4299 42.375 71.5861 41.0625 71.5861 38.8125C71.5861 36.25 72.5549 34.5625 74.4924 33.75C74.3674 31.6875 74.0549 30.2813 73.5549 29.5313C73.0549 28.7188 72.1799 28.3125 70.9299 28.3125C68.8674 28.3125 66.8674 29.8125 64.9299 32.8125C62.9924 35.8125 61.4299 39.4063 60.2424 43.5938C59.0549 47.7813 58.4611 51.4688 58.4611 54.6563C58.4611 57.6563 58.8049 59.6875 59.4924 60.75C60.1799 61.75 61.4299 62.25 63.2424 62.25Z" fill="#D6BA85"/>
<path d="M78.4724 93.75C75.5349 93.75 72.9724 92.7813 70.7849 90.8438C68.5349 88.9688 67.4099 86.5625 67.4099 83.625C67.4099 80.9375 68.0974 78.7188 69.4724 76.9688C70.8474 75.2188 72.6599 73.8125 74.9099 72.75C77.0974 71.75 80.0036 70.6875 83.6286 69.5625L94.8786 16.0312C96.1286 10.0313 98.3161 5.875 101.441 3.5625C104.629 1.25 108.129 0.0937538 111.941 0.0937538C114.066 0.0937538 116.035 0.625002 117.847 1.6875C119.722 2.75 121.097 4.1875 121.972 6C125.035 2.0625 129.316 0.0937538 134.816 0.0937538C137.754 0.0937538 140.316 1.0625 142.504 3C144.754 4.875 145.879 7.28125 145.879 10.2188C145.879 11.6563 145.785 12.9375 145.597 14.0625H141.191C141.316 12.6875 141.379 11.8438 141.379 11.5313C141.379 10.5313 141.035 9.75 140.347 9.1875C139.66 8.625 138.816 8.34375 137.816 8.34375C134.754 8.34375 132.629 10.8125 131.441 15.75L129.754 23.4375H139.129L138.285 27.1875H129.004L118.41 77.8125C117.16 83.8125 114.941 87.9688 111.754 90.2813C108.629 92.5938 105.16 93.75 101.347 93.75C96.2224 93.75 92.8474 91.7813 91.2224 87.8438C88.2224 91.7813 83.9724 93.75 78.4724 93.75ZM116.16 23.4375L117.754 16.0312L118.316 13.5938C118.441 12.5938 118.504 11.9062 118.504 11.5313C118.504 10.5313 118.16 9.75 117.472 9.1875C116.785 8.625 115.941 8.34375 114.941 8.34375C111.879 8.34375 109.754 10.8125 108.566 15.75L106.879 23.4375H116.16ZM107.441 65.1563L115.41 27.1875H106.129L97.7849 66.8438L107.441 65.1563ZM99.1911 85.4063C100.316 85.4063 101.379 84.8125 102.379 83.625C103.379 82.5 104.16 80.6563 104.722 78.0938L106.972 67.4063L97.3161 69.1875L95.5349 77.8125C95.0974 79.75 94.5036 81.6563 93.7536 83.5313C94.4411 84.7813 96.2536 85.4063 99.1911 85.4063ZM76.8786 85.4063C78.0036 85.4063 79.0661 84.8125 80.0661 83.625C81.0661 82.5 81.8474 80.6563 82.4099 78.0938L83.5349 72.6563C80.2224 73.7813 77.6599 75.0625 75.8474 76.5C74.0349 78 73.1286 79.9375 73.1286 82.3125C73.1286 83.0625 73.5036 83.75 74.2536 84.375C75.0036 85.0625 75.8786 85.4063 76.8786 85.4063Z" fill="#D6BA85"/>
<path d="M148.017 70.875C143.392 70.875 139.799 69.6875 137.236 67.3125C134.674 64.875 133.392 61.0938 133.392 55.9688C133.392 51.6563 134.236 46.9063 135.924 41.7188C137.611 36.5313 140.361 32.0625 144.174 28.3125C147.986 24.5 152.83 22.5938 158.705 22.5938C165.58 22.5938 169.017 25.5938 169.017 31.5938C169.017 35.0938 168.017 38.3125 166.017 41.25C164.017 44.1875 161.361 46.5625 158.049 48.375C154.736 50.125 151.205 51.125 147.455 51.375C147.33 53.25 147.267 54.5 147.267 55.125C147.267 58.1875 147.799 60.2813 148.861 61.4063C149.924 62.4688 151.642 63 154.017 63C157.392 63 160.267 62.2188 162.642 60.6563C165.08 59.0938 167.736 56.7188 170.611 53.5313H173.799C166.861 65.0938 158.267 70.875 148.017 70.875ZM148.205 46.875C150.517 46.75 152.705 45.9375 154.767 44.4375C156.892 42.9375 158.58 41.0313 159.83 38.7188C161.142 36.4063 161.799 33.9688 161.799 31.4063C161.799 28.8438 161.017 27.5625 159.455 27.5625C157.205 27.5625 154.986 29.5313 152.799 33.4688C150.674 37.4063 149.142 41.875 148.205 46.875Z" fill="#D6BA85"/>
<path d="M183.81 70.875C179.248 70.875 175.685 69.6875 173.123 67.3125C170.56 64.875 169.279 61.0938 169.279 55.9688C169.279 51.6563 170.123 46.9063 171.81 41.7188C173.498 36.5313 176.248 32.0625 180.06 28.3125C183.873 24.5 188.716 22.5938 194.591 22.5938C201.466 22.5938 204.904 25.5938 204.904 31.5938C204.904 35.0938 203.904 38.3125 201.904 41.25C199.904 44.1875 197.248 46.5625 193.935 48.375C190.623 50.125 187.091 51.125 183.341 51.375C183.216 52.75 183.154 53.6875 183.154 54.1875C183.154 59.375 185.091 61.9688 188.966 61.9688C190.716 61.9688 192.591 61.5 194.591 60.5625C196.591 59.625 198.404 58.4375 200.029 57C198.341 66.25 192.935 70.875 183.81 70.875ZM183.998 46.875C186.373 46.8125 188.591 46.0313 190.654 44.5313C192.779 43.0313 194.466 41.125 195.716 38.8125C197.029 36.4375 197.685 33.9688 197.685 31.4063C197.685 28.8438 196.904 27.5625 195.341 27.5625C193.154 27.5625 190.966 29.5625 188.779 33.5625C186.654 37.5 185.06 41.9375 183.998 46.875Z" fill="#D6BA85"/>
<path d="M222.926 88.892C219.347 88.892 216.193 88.267 213.466 87.017C210.739 85.767 208.636 84.0341 207.159 81.8182C205.682 79.5454 204.943 76.9318 204.943 73.9773C204.943 71.4773 205.455 69.2045 206.477 67.1591C207.557 65.1136 208.977 63.4943 210.739 62.3011C212.557 61.1079 214.545 60.5114 216.705 60.5114C218.693 60.5114 220.369 61.0227 221.733 62.0454C223.097 63.0114 223.949 64.375 224.29 66.1364C221.335 66.1364 218.977 66.9318 217.216 68.5227C215.455 70.0568 214.574 72.1591 214.574 74.8295C214.574 77.2727 215.312 79.2329 216.79 80.7102C218.267 82.1875 220.227 82.9261 222.67 82.9261C225.682 82.9261 228.153 81.9318 230.085 79.9432C232.074 77.8977 233.068 75.3409 233.068 72.2727C233.068 69.6023 232.33 67.0739 230.852 64.6875C229.375 62.3011 227.159 59.4034 224.205 55.9943C221.136 52.4716 218.807 49.4602 217.216 46.9602C215.682 44.4034 214.915 41.6193 214.915 38.6079C214.915 35.6534 215.739 33.0114 217.386 30.6818C219.034 28.2954 221.307 26.4204 224.205 25.0568C227.102 23.6932 230.369 23.0114 234.006 23.0114C238.608 23.0114 242.273 24.0909 245 26.25C247.784 28.4091 249.176 31.3068 249.176 34.9432C249.176 37.3295 248.58 39.2614 247.386 40.7386C246.193 42.2159 244.631 42.9545 242.699 42.9545C240.54 42.9545 238.807 42.0739 237.5 40.3125C238.58 39.517 239.432 38.4659 240.057 37.1591C240.682 35.8523 240.994 34.4886 240.994 33.0682C240.994 31.25 240.455 29.8011 239.375 28.7216C238.295 27.642 236.818 27.1023 234.943 27.1023C232.67 27.1023 230.795 27.9261 229.318 29.5739C227.898 31.1648 227.187 33.2102 227.187 35.7102C227.187 37.9829 227.841 40.1136 229.148 42.1023C230.455 44.0341 232.5 46.5341 235.284 49.6023C237.557 52.0454 239.375 54.1477 240.739 55.9091C242.159 57.6704 243.352 59.7159 244.318 62.0454C245.341 64.3182 245.852 66.7898 245.852 69.4602C245.852 73.0966 244.83 76.392 242.784 79.3466C240.795 82.3011 238.04 84.6307 234.517 86.3352C231.051 88.0398 227.187 88.892 222.926 88.892Z" fill="#8A7755"/>
<path d="M281.419 87.8693C277.953 87.8693 275.396 86.9602 273.748 85.142C272.157 83.267 271.362 80.9659 271.362 78.2386C271.362 77.0454 271.504 75.7102 271.788 74.2329C272.072 72.6989 272.356 71.2216 272.64 69.8011C272.981 68.3807 273.208 67.4716 273.322 67.0739C273.777 65.0852 274.203 63.125 274.6 61.1932C274.998 59.2614 275.197 57.6989 275.197 56.5057C275.197 53.6079 274.174 52.1591 272.129 52.1591C270.652 52.1591 269.345 52.8977 268.208 54.375C267.072 55.7954 266.163 57.6704 265.481 60L259.686 87.3579H247.413L259.771 29.4034L272.385 27.6989L267.782 49.1761C270.623 45.9943 273.947 44.4034 277.754 44.4034C280.652 44.4034 282.953 45.1989 284.657 46.7898C286.362 48.3807 287.214 50.7954 287.214 54.0341C287.214 55.6818 287.015 57.5284 286.618 59.5739C286.22 61.5625 285.652 64.0057 284.913 66.9034C284.458 68.6648 284.032 70.3977 283.635 72.1023C283.294 73.75 283.123 75.0568 283.123 76.0227C283.123 77.1591 283.379 78.0398 283.89 78.6648C284.402 79.2898 285.282 79.6023 286.532 79.6023C288.237 79.6023 289.6 79.0057 290.623 77.8125C291.646 76.5625 292.669 74.6591 293.691 72.1023H297.271C295.169 78.3523 292.725 82.5568 289.941 84.7159C287.214 86.8182 284.373 87.8693 281.419 87.8693Z" fill="#8A7755"/>
<path d="M306.125 87.6989C301.92 87.6989 298.596 86.6193 296.153 84.4602C293.71 82.3011 292.488 78.892 292.488 74.2329C292.488 70.3693 293.284 66.0795 294.875 61.3636C296.465 56.6477 299.022 52.5852 302.545 49.1761C306.068 45.7102 310.5 43.9773 315.841 43.9773C323.113 43.9773 326.75 48.5227 326.75 57.6136V57.6989C326.92 57.7557 327.233 57.7841 327.687 57.7841C329.562 57.7841 331.721 57.3011 334.164 56.3352C336.608 55.3125 338.823 54.0909 340.812 52.6704L341.579 54.9716C339.931 56.7329 337.772 58.2386 335.102 59.4886C332.488 60.6818 329.619 61.5341 326.494 62.0454C326.039 67.2159 324.875 71.7329 323 75.5966C321.125 79.4602 318.71 82.4432 315.755 84.5454C312.801 86.6477 309.59 87.6989 306.125 87.6989ZM309.534 80.0284C310.897 80.0284 312.261 79.2614 313.625 77.7273C314.988 76.1364 316.181 74.0057 317.204 71.3352C318.227 68.6079 318.965 65.5966 319.42 62.3011C317.886 61.9602 317.119 60.767 317.119 58.7216C317.119 56.392 318 54.8579 319.761 54.1193C319.647 52.2443 319.363 50.9659 318.909 50.2841C318.454 49.5454 317.659 49.1761 316.522 49.1761C314.647 49.1761 312.829 50.5398 311.068 53.267C309.306 55.9943 307.886 59.2614 306.806 63.0682C305.727 66.875 305.187 70.2273 305.187 73.125C305.187 75.8523 305.5 77.6989 306.125 78.6648C306.75 79.5739 307.886 80.0284 309.534 80.0284Z" fill="#8A7755"/>
<path d="M337.612 41.5909H349.885L348.521 47.9829C351.362 45.5398 354.686 44.3182 358.493 44.3182C361.675 44.3182 364.203 45.3693 366.078 47.4716C367.953 49.5739 368.89 53.0114 368.89 57.7841C368.89 62.2727 368.237 66.8182 366.93 71.4205C365.623 75.9659 363.408 79.8579 360.283 83.0966C357.158 86.2784 353.038 87.8693 347.925 87.8693C344.288 87.8693 341.873 86.8466 340.68 84.8011L336.248 105.597L323.379 108.665L337.612 41.5909ZM345.283 80.4545C348.01 80.4545 350.254 79.1761 352.015 76.6193C353.834 74.0625 355.14 71.0227 355.936 67.5C356.788 63.9204 357.214 60.5966 357.214 57.5284C357.214 52.8125 355.794 50.4545 352.953 50.4545C351.93 50.4545 350.879 50.8239 349.8 51.5625C348.777 52.3011 347.868 53.3239 347.072 54.6307L342.044 78.4943C342.498 79.8011 343.578 80.4545 345.283 80.4545Z" fill="#8A7755"/>
</svg>
