<svg width="200" height="164" viewBox="0 0 200 164" fill="none" xmlns="http://www.w3.org/2000/svg">
<path d="M37.3399 90.9985C37.2745 91.0965 37.2091 91.1945 37.1111 91.2598C37.0131 91.3252 36.9477 91.3578 36.817 91.3578C36.7189 91.3578 36.5882 91.3252 36.4902 91.2598C36.3595 91.1945 36.2287 91.1292 36.0653 91.0312C35.902 90.9332 35.7386 90.8679 35.5425 90.8026C35.3464 90.7372 35.1176 90.7046 34.8562 90.7046C34.4314 90.7046 34.1046 90.8026 33.8758 90.9985C33.6471 91.1945 33.549 91.4232 33.549 91.7498C33.549 91.9458 33.6144 92.1091 33.7451 92.2397C33.8758 92.3704 34.0392 92.501 34.2353 92.599C34.4314 92.697 34.6928 92.795 34.9542 92.8603C35.2157 92.9256 35.5098 93.0236 35.7712 93.1216C36.0653 93.2196 36.3268 93.3503 36.5882 93.4809C36.8497 93.6116 37.0784 93.7749 37.3072 94.0035C37.5033 94.1995 37.6993 94.4608 37.7974 94.7548C37.8954 95.0487 37.9935 95.408 37.9935 95.8326C37.9935 96.2899 37.9281 96.7145 37.7647 97.1392C37.6013 97.5311 37.3725 97.8904 37.0784 98.1844C36.7843 98.4783 36.3921 98.707 35.9673 98.9029C35.5098 99.0663 35.0196 99.1643 34.4314 99.1643C34.1046 99.1643 33.8104 99.1316 33.4837 99.0663C33.1569 99.0009 32.8627 98.9029 32.5359 98.805C32.2418 98.6743 31.9477 98.5437 31.6863 98.3803C31.4248 98.217 31.1961 98.0537 31 97.8577L31.6863 96.7799C31.7516 96.7145 31.817 96.6492 31.915 96.5839C32.0131 96.5186 32.1111 96.5186 32.2091 96.5186C32.3399 96.5186 32.4706 96.5512 32.634 96.6492C32.7647 96.7472 32.9281 96.8452 33.0915 96.9432C33.2549 97.0412 33.4837 97.1392 33.7124 97.2371C33.9412 97.3351 34.2026 97.3678 34.5294 97.3678C34.9542 97.3678 35.281 97.2698 35.5098 97.0738C35.7386 96.8779 35.8693 96.5839 35.8693 96.1919C35.8693 95.9633 35.8039 95.7673 35.6732 95.6367C35.5425 95.506 35.3791 95.3754 35.183 95.2774C34.9869 95.1794 34.7255 95.0814 34.464 95.0161C34.2026 94.9507 33.9412 94.8528 33.647 94.7874C33.3529 94.6894 33.0915 94.5915 32.8301 94.4608C32.5686 94.3302 32.3399 94.1668 32.1111 93.9382C31.915 93.7096 31.7189 93.4483 31.6209 93.1543C31.4902 92.8277 31.4248 92.4357 31.4248 91.9784C31.4248 91.6191 31.4902 91.2272 31.6536 90.8679C31.817 90.5086 32.0131 90.182 32.3072 89.9207C32.6013 89.6267 32.9608 89.4307 33.3856 89.2674C33.8104 89.1041 34.3006 89.0061 34.8562 89.0061C35.1503 89.0061 35.4771 89.0388 35.7386 89.0714C36.0327 89.1041 36.2941 89.2021 36.5555 89.3001C36.817 89.3981 37.0457 89.496 37.2745 89.6267C37.5033 89.7573 37.6993 89.9207 37.8954 90.084L37.3399 90.9985Z" fill="white"/>
<path d="M43.9739 95.1467V98.9356H41.6536V95.1467L38.0261 88.9408H40.085C40.281 88.9408 40.4444 88.9735 40.5752 89.0715C40.7059 89.1694 40.8039 89.3001 40.8693 89.4307L42.2745 92.3377C42.4052 92.5664 42.5033 92.795 42.6013 92.991C42.6993 93.187 42.7974 93.3829 42.8627 93.5789C42.9281 93.3829 43.0261 93.187 43.0915 92.991C43.1895 92.795 43.2876 92.5664 43.4183 92.3704L44.8235 89.4634C44.8562 89.3981 44.8889 89.3328 44.9542 89.3001C44.9869 89.2348 45.0523 89.2021 45.1176 89.1368C45.183 89.1041 45.2484 89.0388 45.3464 89.0061C45.4118 88.9735 45.5098 88.9735 45.6078 88.9735H47.6667L43.9739 95.1467Z" fill="white"/>
<path d="M53.4837 90.9985C53.4183 91.0965 53.3529 91.1945 53.2549 91.2598C53.1569 91.3252 53.0915 91.3578 52.9608 91.3578C52.8627 91.3578 52.732 91.3252 52.634 91.2598C52.5033 91.1945 52.3725 91.1292 52.2091 91.0312C52.0457 90.9332 51.8823 90.8679 51.6863 90.8026C51.4902 90.7372 51.2614 90.7046 51 90.7046C50.5752 90.7046 50.2484 90.8026 50.0196 90.9985C49.7908 91.1945 49.6928 91.4232 49.6928 91.7498C49.6928 91.9458 49.7582 92.1091 49.8889 92.2397C50.0196 92.3704 50.183 92.501 50.3791 92.599C50.5752 92.697 50.8366 92.795 51.098 92.8603C51.3595 92.9256 51.6536 93.0236 51.915 93.1216C52.2091 93.2196 52.4706 93.3503 52.732 93.4809C52.9935 93.6116 53.2222 93.7749 53.451 94.0035C53.6471 94.1995 53.8431 94.4608 53.9412 94.7548C54.0392 95.0487 54.1372 95.408 54.1372 95.8326C54.1372 96.2899 54.0719 96.7145 53.9085 97.1392C53.7451 97.5311 53.5163 97.8904 53.2222 98.1844C52.9281 98.4783 52.5359 98.707 52.1111 98.9029C51.6536 99.0663 51.1634 99.1643 50.5752 99.1643C50.2484 99.1643 49.9542 99.1316 49.6274 99.0663C49.3006 99.0009 49.0065 98.9029 48.6797 98.805C48.3856 98.6743 48.0915 98.5437 47.8301 98.3803C47.5686 98.217 47.3399 98.0537 47.1438 97.8577L47.8301 96.7799C47.8954 96.7145 47.9608 96.6492 48.0588 96.5839C48.1569 96.5186 48.2549 96.5186 48.3529 96.5186C48.4837 96.5186 48.6144 96.5512 48.7778 96.6492C48.9085 96.7472 49.0719 96.8452 49.2353 96.9432C49.3987 97.0412 49.6274 97.1392 49.8562 97.2371C50.085 97.3351 50.3464 97.3678 50.6732 97.3678C51.098 97.3678 51.4248 97.2698 51.6536 97.0738C51.8823 96.8779 52.0131 96.5839 52.0131 96.1919C52.0131 95.9633 51.9477 95.7673 51.817 95.6367C51.6863 95.506 51.5229 95.3754 51.3268 95.2774C51.1307 95.1794 50.8693 95.0814 50.6078 95.0161C50.3464 94.9507 50.085 94.8528 49.7908 94.7874C49.4967 94.6894 49.2353 94.5915 48.9739 94.4608C48.7124 94.3302 48.4837 94.1668 48.2549 93.9382C48.0588 93.7096 47.8627 93.4483 47.7647 93.1543C47.634 92.8277 47.5686 92.4357 47.5686 91.9784C47.5686 91.6191 47.634 91.2272 47.7974 90.8679C47.9608 90.5086 48.1569 90.182 48.451 89.9207C48.7451 89.6267 49.1046 89.4307 49.5294 89.2674C49.9542 89.1041 50.4444 89.0061 51 89.0061C51.2941 89.0061 51.6209 89.0388 51.8823 89.0714C52.1765 89.1041 52.4379 89.2021 52.6993 89.3001C52.9608 89.3981 53.1895 89.496 53.4183 89.6267C53.6471 89.7573 53.8431 89.9207 54.0392 90.084L53.4837 90.9985Z" fill="white"/>
<path d="M62.3072 96.3553C62.3725 96.3553 62.4052 96.3553 62.4706 96.388C62.5359 96.4206 62.5686 96.4533 62.634 96.4859L63.549 97.4658C63.1569 97.9884 62.634 98.3804 62.0457 98.6417C61.4248 98.903 60.7386 99.0336 59.8889 99.0336C59.1372 99.0336 58.451 98.903 57.8627 98.6417C57.2745 98.3804 56.7516 98.0211 56.3268 97.5638C55.902 97.1065 55.5752 96.5839 55.3464 95.9307C55.1176 95.3101 55.0196 94.6242 55.0196 93.9056C55.0196 93.1543 55.1503 92.4684 55.3791 91.8478C55.6078 91.2272 55.9673 90.672 56.3922 90.2473C56.817 89.7901 57.3725 89.4308 57.9608 89.2021C58.5817 88.9408 59.2353 88.8102 59.9869 88.8102C60.3464 88.8102 60.7059 88.8428 61.0327 88.9082C61.3595 88.9735 61.6863 89.0715 61.9477 89.1695C62.2418 89.3001 62.5033 89.4308 62.732 89.5941C62.9608 89.7574 63.1895 89.9534 63.3856 90.1167L62.6013 91.1619C62.5359 91.2272 62.5033 91.2926 62.4379 91.3252C62.3725 91.3579 62.2745 91.3905 62.1438 91.3905C62.0457 91.3905 61.9804 91.3579 61.915 91.3252C61.8497 91.2926 61.7516 91.2599 61.6863 91.1946C61.6209 91.1292 61.5229 91.0966 61.4248 91.0313C61.3268 90.9659 61.1961 90.9006 61.0654 90.8679C60.9346 90.8026 60.7712 90.7699 60.6078 90.7373C60.4118 90.7046 60.2157 90.672 59.9869 90.672C59.5948 90.672 59.2353 90.7373 58.9412 90.9006C58.6144 91.0312 58.3529 91.2599 58.1242 91.5212C57.8954 91.7825 57.6993 92.1418 57.6013 92.5337C57.4706 92.9257 57.4052 93.383 57.4052 93.8729C57.4052 94.3955 57.4706 94.8528 57.6013 95.2448C57.732 95.6367 57.9281 95.9633 58.1569 96.2573C58.3856 96.5186 58.6797 96.7472 59.0065 96.8779C59.3333 97.0085 59.6601 97.1065 60.0196 97.1065C60.2157 97.1065 60.4118 97.1065 60.6078 97.0739C60.7712 97.0412 60.9346 97.0085 61.098 96.9759C61.2614 96.9432 61.3921 96.8779 61.5229 96.7799C61.6536 96.7146 61.7843 96.5839 61.915 96.4859C61.9804 96.4533 62.0131 96.388 62.0784 96.388C62.1765 96.388 62.2418 96.3553 62.3072 96.3553Z" fill="white"/>
<path d="M74.1372 93.9382C74.1372 94.6568 74.0065 95.3427 73.7778 95.9633C73.5163 96.5839 73.1895 97.1392 72.732 97.5965C72.2745 98.0538 71.7189 98.4131 71.098 98.6744C70.4444 98.9357 69.7582 99.0663 68.9739 99.0663C68.1895 99.0663 67.4706 98.9357 66.8497 98.6744C66.1961 98.4131 65.6732 98.0538 65.2157 97.5965C64.7582 97.1392 64.3987 96.5839 64.1699 95.9633C63.9085 95.3427 63.8105 94.6568 63.8105 93.9382C63.8105 93.2197 63.9412 92.5337 64.1699 91.9131C64.4314 91.2926 64.7582 90.7373 65.2157 90.28C65.6732 89.8227 66.2288 89.4634 66.8497 89.2021C67.5033 88.9408 68.1895 88.8102 68.9739 88.8102C69.7582 88.8102 70.4444 88.9408 71.098 89.2021C71.7516 89.4634 72.2745 89.8227 72.732 90.28C73.1895 90.7373 73.549 91.2926 73.7778 91.9131C74.0065 92.5664 74.1372 93.2197 74.1372 93.9382ZM71.7516 93.9382C71.7516 93.4483 71.6863 92.991 71.5555 92.5991C71.4248 92.2071 71.2288 91.8805 71 91.5865C70.7712 91.3252 70.4771 91.0966 70.1176 90.9659C69.7582 90.8353 69.366 90.7373 68.9412 90.7373C68.4837 90.7373 68.0915 90.8026 67.732 90.9659C67.3725 91.0966 67.0784 91.3252 66.8497 91.5865C66.6209 91.8478 66.4248 92.2071 66.2941 92.5991C66.1634 92.991 66.098 93.4483 66.098 93.9382C66.098 94.4282 66.1634 94.8855 66.2941 95.2774C66.4248 95.6694 66.6209 95.996 66.8497 96.29C67.0784 96.5513 67.3725 96.7799 67.732 96.9106C68.0915 97.0412 68.4837 97.1392 68.9412 97.1392C69.3987 97.1392 69.7908 97.0739 70.1176 96.9106C70.4771 96.7799 70.7712 96.5513 71 96.29C71.2288 96.0287 71.4248 95.6694 71.5555 95.2774C71.6863 94.8855 71.7516 94.4609 71.7516 93.9382Z" fill="white"/>
<path d="M82.9935 97.3026C83.0261 97.3026 83.0915 97.3026 83.1242 97.3352L83.3856 97.6292C83.1895 97.8578 82.9608 98.0212 82.732 98.2171C82.5033 98.3804 82.2418 98.5438 81.9477 98.6417C81.6536 98.7397 81.3595 98.8704 81.0327 98.9357C80.7059 99.001 80.3137 99.0337 79.9216 99.0337C79.2353 99.0337 78.647 98.9031 78.0588 98.6744C77.5033 98.4458 77.0131 98.1191 76.6209 97.6619C76.2287 97.2372 75.9019 96.7146 75.6732 96.094C75.4444 95.4735 75.3464 94.7875 75.3464 94.0363C75.3464 93.285 75.4444 92.6318 75.6732 92.0112C75.9019 91.3906 76.2287 90.868 76.6209 90.4434C77.0457 90.0188 77.5359 89.6595 78.0915 89.4308C78.6797 89.2022 79.3006 89.0715 79.9869 89.0715C80.6405 89.0715 81.2287 89.1695 81.7516 89.3655C82.2745 89.5615 82.732 89.8554 83.1569 90.2474L82.9281 90.5414C82.8954 90.6067 82.8301 90.6393 82.7647 90.6393C82.6993 90.6393 82.634 90.574 82.5033 90.476C82.3725 90.378 82.2091 90.2801 81.9804 90.1494C81.7516 90.0188 81.4902 89.9208 81.1634 89.8228C80.8366 89.7248 80.4444 89.6595 79.9869 89.6595C79.3987 89.6595 78.8758 89.7574 78.3856 89.9534C77.8954 90.1494 77.4706 90.4434 77.1438 90.8027C76.7843 91.162 76.5229 91.6192 76.3268 92.1745C76.1307 92.7298 76.0327 93.3177 76.0327 94.0036C76.0327 94.6895 76.1307 95.3101 76.3268 95.8327C76.5229 96.388 76.7843 96.8126 77.1438 97.2046C77.5033 97.5639 77.8954 97.8578 78.3856 98.0538C78.8431 98.2498 79.366 98.3478 79.9216 98.3478C80.281 98.3478 80.5752 98.3151 80.8366 98.2825C81.098 98.2498 81.3595 98.1845 81.5882 98.0865C81.817 97.9885 82.0457 97.8905 82.2418 97.7598C82.4379 97.6292 82.634 97.4659 82.8301 97.3026C82.8627 97.2699 82.8627 97.2699 82.8954 97.2699C82.9281 97.3352 82.9608 97.3026 82.9935 97.3026Z" fill="white"/>
<path d="M93.7124 94.1016C93.7124 94.8528 93.6144 95.5388 93.3856 96.1267C93.1569 96.7146 92.8301 97.2699 92.4379 97.6945C92.0458 98.1191 91.5556 98.4458 90.9673 98.7071C90.4118 98.9357 89.7582 99.0663 89.0719 99.0663C88.3856 99.0663 87.7647 98.9357 87.1765 98.7071C86.6209 98.4784 86.1307 98.1518 85.7059 97.6945C85.281 97.2372 84.9869 96.7473 84.7582 96.1267C84.5294 95.5061 84.4314 94.8202 84.4314 94.1016C84.4314 93.3504 84.5294 92.6644 84.7582 92.0765C84.9869 91.4559 85.3137 90.9333 85.7059 90.5087C86.098 90.0841 86.5882 89.7574 87.1765 89.4961C87.732 89.2675 88.3856 89.1368 89.0719 89.1368C89.7582 89.1368 90.3791 89.2675 90.9673 89.4961C91.5229 89.7248 92.0131 90.0514 92.4379 90.5087C92.8628 90.966 93.1569 91.4559 93.3856 92.0765C93.6144 92.6644 93.7124 93.3504 93.7124 94.1016ZM92.9935 94.1016C92.9935 93.4157 92.8954 92.8277 92.6993 92.2725C92.5033 91.7172 92.2418 91.2599 91.915 90.9006C91.5556 90.5413 91.1634 90.2474 90.6732 90.0514C90.183 89.8554 89.6601 89.7574 89.0719 89.7574C88.4837 89.7574 87.9608 89.8554 87.4706 90.0514C86.9804 90.2474 86.5882 90.5413 86.2288 90.9006C85.8693 91.2599 85.6078 91.7172 85.4118 92.2725C85.2157 92.8277 85.1176 93.4157 85.1176 94.1016C85.1176 94.7875 85.2157 95.4081 85.4118 95.9307C85.6078 96.4533 85.8693 96.9106 86.2288 97.3026C86.5882 97.6618 86.9804 97.9558 87.4706 98.1518C87.9608 98.3478 88.4837 98.4458 89.0719 98.4458C89.6601 98.4458 90.183 98.3478 90.6732 98.1518C91.1634 97.9558 91.5556 97.6618 91.915 97.3026C92.2418 96.9433 92.536 96.486 92.6993 95.9307C92.8954 95.3755 92.9935 94.7875 92.9935 94.1016Z" fill="white"/>
<path d="M103.451 89.2349V98.9357H103.124C103.059 98.9357 103.026 98.9357 102.961 98.903C102.928 98.8704 102.895 98.8377 102.863 98.805L96.5555 90.3781C96.5555 90.5087 96.5882 90.6394 96.5882 90.77V98.9357H95.9673V89.2349H96.3268C96.3921 89.2349 96.4248 89.2349 96.4902 89.2675C96.5229 89.2675 96.5555 89.3328 96.5882 89.3655L102.895 97.7598C102.895 97.6292 102.863 97.4985 102.863 97.3679V89.2349H103.451Z" fill="white"/>
<path d="M111.033 90.4107C111 90.476 110.935 90.5414 110.869 90.5414C110.804 90.5414 110.739 90.5087 110.64 90.4107C110.542 90.3127 110.412 90.2474 110.248 90.1168C110.085 90.0188 109.889 89.9208 109.66 89.8228C109.431 89.7248 109.137 89.6921 108.778 89.6921C108.418 89.6921 108.124 89.7575 107.863 89.8555C107.601 89.9534 107.373 90.0841 107.176 90.2801C106.98 90.4434 106.85 90.6394 106.752 90.868C106.654 91.0966 106.621 91.3253 106.621 91.5866C106.621 91.9132 106.686 92.1745 106.817 92.4031C106.948 92.6318 107.144 92.7951 107.373 92.9584C107.601 93.1217 107.863 93.2524 108.157 93.3504C108.451 93.4483 108.745 93.5463 109.039 93.6443C109.333 93.7423 109.66 93.8403 109.922 93.971C110.183 94.1016 110.477 94.2323 110.706 94.4282C110.935 94.6242 111.131 94.8202 111.261 95.1142C111.392 95.3755 111.457 95.7021 111.457 96.1267C111.457 96.5186 111.392 96.9106 111.261 97.2699C111.131 97.6292 110.935 97.9558 110.64 98.2171C110.379 98.4784 110.052 98.7071 109.66 98.8377C109.268 99.001 108.843 99.0663 108.353 99.0663C107.699 99.0663 107.176 98.9683 106.686 98.7397C106.229 98.5111 105.804 98.2171 105.477 97.8252L105.673 97.5312C105.739 97.4659 105.804 97.4332 105.869 97.4332C105.902 97.4332 105.967 97.4659 106.033 97.5312C106.098 97.5965 106.163 97.6618 106.261 97.7272C106.359 97.7925 106.457 97.8905 106.588 97.9885C106.719 98.0865 106.85 98.1844 107.046 98.2498C107.209 98.3151 107.405 98.4131 107.634 98.4457C107.863 98.5111 108.091 98.5437 108.386 98.5437C108.778 98.5437 109.105 98.4784 109.399 98.3804C109.693 98.2498 109.954 98.1191 110.15 97.8905C110.346 97.6945 110.51 97.4659 110.64 97.1719C110.739 96.9106 110.804 96.584 110.804 96.29C110.804 95.9307 110.739 95.6694 110.608 95.4408C110.477 95.2121 110.281 95.0488 110.052 94.8855C109.824 94.7222 109.562 94.6242 109.268 94.5262C108.974 94.4282 108.68 94.3302 108.386 94.2323C108.091 94.1343 107.765 94.0363 107.503 93.9056C107.242 93.775 106.948 93.6443 106.719 93.4484C106.49 93.2524 106.294 93.0237 106.163 92.7624C106.033 92.5011 105.967 92.1418 105.967 91.7172C105.967 91.3906 106.033 91.064 106.163 90.77C106.294 90.476 106.457 90.2147 106.719 89.9861C106.948 89.7575 107.242 89.5615 107.601 89.4308C107.961 89.3002 108.353 89.2349 108.81 89.2349C109.301 89.2349 109.758 89.3002 110.15 89.4635C110.542 89.6268 110.902 89.8555 111.229 90.1821L111.033 90.4107Z" fill="white"/>
<path d="M117.209 98.4457C117.667 98.4457 118.092 98.3804 118.451 98.2171C118.81 98.0538 119.137 97.8252 119.399 97.5312C119.66 97.2372 119.856 96.9106 119.987 96.5186C120.118 96.1267 120.183 95.7021 120.183 95.2448V89.2349H120.869V95.2448C120.869 95.7674 120.771 96.29 120.608 96.7473C120.444 97.2046 120.183 97.6292 119.889 97.9558C119.562 98.3151 119.17 98.5764 118.745 98.7724C118.288 98.9684 117.765 99.0663 117.209 99.0663C116.654 99.0663 116.131 98.9684 115.673 98.7724C115.216 98.5764 114.824 98.3151 114.529 97.9558C114.203 97.5965 113.974 97.2046 113.81 96.7473C113.647 96.29 113.549 95.7674 113.549 95.2448V89.2349H114.268V95.2448C114.268 95.7021 114.333 96.1267 114.464 96.5186C114.595 96.9106 114.791 97.2372 115.052 97.5312C115.314 97.8252 115.608 98.0538 116 98.2171C116.392 98.3804 116.752 98.4457 117.209 98.4457Z" fill="white"/>
<path d="M128.941 98.3478V98.9357H123.647V89.2349H124.366V98.3478H128.941Z" fill="white"/>
<path d="M135.542 89.8554H132.111V98.9683H131.392V89.8554H127.961V89.2675H135.51V89.8554H135.542Z" fill="white"/>
<path d="M145.216 94.1016C145.216 94.8528 145.118 95.5388 144.889 96.1267C144.66 96.7146 144.333 97.2699 143.941 97.6945C143.549 98.1191 143.059 98.4458 142.471 98.7071C141.915 98.9357 141.261 99.0663 140.575 99.0663C139.889 99.0663 139.268 98.9357 138.68 98.7071C138.124 98.4784 137.634 98.1518 137.209 97.6945C136.784 97.2372 136.49 96.7473 136.261 96.1267C136.033 95.5061 135.935 94.8202 135.935 94.1016C135.935 93.3504 136.033 92.6644 136.261 92.0765C136.49 91.4559 136.817 90.9333 137.209 90.5087C137.601 90.0841 138.091 89.7574 138.68 89.4961C139.235 89.2675 139.889 89.1368 140.575 89.1368C141.261 89.1368 141.882 89.2675 142.471 89.4961C143.026 89.7248 143.516 90.0514 143.941 90.5087C144.333 90.9333 144.66 91.4559 144.889 92.0765C145.118 92.6644 145.216 93.3504 145.216 94.1016ZM144.497 94.1016C144.497 93.4157 144.399 92.8277 144.203 92.2725C144.007 91.7172 143.745 91.2599 143.418 90.9006C143.091 90.5413 142.667 90.2474 142.176 90.0514C141.686 89.8554 141.163 89.7574 140.575 89.7574C139.987 89.7574 139.464 89.8554 138.974 90.0514C138.484 90.2474 138.091 90.5413 137.732 90.9006C137.373 91.2599 137.111 91.7172 136.915 92.2725C136.719 92.8277 136.621 93.4157 136.621 94.1016C136.621 94.7875 136.719 95.4081 136.915 95.9307C137.111 96.4533 137.373 96.9106 137.732 97.3026C138.091 97.6618 138.484 97.9558 138.974 98.1518C139.464 98.3478 139.987 98.4458 140.575 98.4458C141.163 98.4458 141.686 98.3478 142.176 98.1518C142.667 97.9558 143.059 97.6618 143.418 97.3026C143.778 96.9433 144.039 96.486 144.203 95.9307C144.399 95.3755 144.497 94.7875 144.497 94.1016Z" fill="white"/>
<path d="M154.137 98.9357H153.549C153.484 98.9357 153.418 98.9357 153.353 98.903C153.288 98.8704 153.255 98.8377 153.19 98.7724L150.085 94.8202C150.052 94.7549 150.02 94.7222 149.987 94.6895C149.954 94.6569 149.889 94.6242 149.856 94.5916C149.823 94.5589 149.758 94.5589 149.693 94.5589C149.627 94.5589 149.529 94.5589 149.464 94.5589H148.19V98.9357H147.471V89.2349H149.954C151.065 89.2349 151.915 89.4635 152.471 89.8881C153.026 90.3127 153.32 90.966 153.32 91.7826C153.32 92.1418 153.255 92.5011 153.124 92.7951C152.993 93.0891 152.797 93.383 152.569 93.6117C152.34 93.8403 152.046 94.0363 151.686 94.1669C151.327 94.2976 150.967 94.3956 150.542 94.4609C150.64 94.5262 150.739 94.6242 150.837 94.7222L154.137 98.9357ZM149.856 94.0363C150.281 94.0363 150.673 93.971 151 93.873C151.327 93.775 151.621 93.6117 151.85 93.4157C152.078 93.2197 152.274 92.9911 152.373 92.7298C152.471 92.4685 152.569 92.1418 152.569 91.8152C152.569 91.1293 152.34 90.6067 151.882 90.2801C151.425 89.9534 150.771 89.7901 149.922 89.7901H148.157V94.0363H149.856Z" fill="white"/>
<path d="M161.621 98.3804V98.9683H155.804V89.2675H161.621V89.8554H156.523V93.7749H160.771V94.3302H156.523V98.3804H161.621Z" fill="white"/>
<path d="M168.451 90.4107C168.418 90.476 168.353 90.5414 168.288 90.5414C168.222 90.5414 168.157 90.5087 168.059 90.4107C167.961 90.3127 167.83 90.2474 167.667 90.1168C167.503 90.0188 167.307 89.9208 167.078 89.8228C166.85 89.7248 166.556 89.6921 166.196 89.6921C165.837 89.6921 165.542 89.7575 165.281 89.8555C165.02 89.9534 164.791 90.0841 164.595 90.2801C164.399 90.4434 164.268 90.6394 164.17 90.868C164.072 91.0966 164.039 91.3253 164.039 91.5866C164.039 91.9132 164.105 92.1745 164.235 92.4031C164.366 92.6318 164.562 92.7951 164.791 92.9584C165.02 93.1217 165.281 93.2524 165.575 93.3504C165.869 93.4483 166.163 93.5463 166.458 93.6443C166.752 93.7423 167.078 93.8403 167.34 93.971C167.601 94.1016 167.895 94.2323 168.124 94.4282C168.353 94.6242 168.549 94.8202 168.68 95.1142C168.81 95.3755 168.876 95.7021 168.876 96.1267C168.876 96.5186 168.81 96.9106 168.68 97.2699C168.549 97.6292 168.353 97.9558 168.059 98.2171C167.797 98.4784 167.471 98.7071 167.078 98.8377C166.686 99.001 166.261 99.0663 165.771 99.0663C165.118 99.0663 164.595 98.9683 164.105 98.7397C163.647 98.5111 163.222 98.2171 162.895 97.8252L163.092 97.5312C163.157 97.4659 163.222 97.4332 163.288 97.4332C163.32 97.4332 163.386 97.4659 163.451 97.5312C163.516 97.5965 163.582 97.6618 163.68 97.7272C163.778 97.7925 163.876 97.8905 164.007 97.9885C164.137 98.0865 164.268 98.1844 164.464 98.2498C164.627 98.3151 164.824 98.4131 165.052 98.4457C165.281 98.5111 165.51 98.5437 165.804 98.5437C166.196 98.5437 166.523 98.4784 166.817 98.3804C167.111 98.2498 167.373 98.1191 167.569 97.8905C167.765 97.6945 167.928 97.4659 168.059 97.1719C168.157 96.9106 168.222 96.584 168.222 96.29C168.222 95.9307 168.157 95.6694 168.026 95.4408C167.895 95.2121 167.699 95.0488 167.471 94.8855C167.242 94.7222 166.98 94.6242 166.686 94.5262C166.392 94.4282 166.098 94.3302 165.804 94.2323C165.51 94.1343 165.183 94.0363 164.922 93.9056C164.66 93.775 164.366 93.6443 164.137 93.4484C163.909 93.2524 163.712 93.0237 163.582 92.7624C163.451 92.5011 163.386 92.1418 163.386 91.7172C163.386 91.3906 163.451 91.064 163.582 90.77C163.712 90.476 163.876 90.2147 164.137 89.9861C164.366 89.7575 164.66 89.5615 165.02 89.4308C165.379 89.3002 165.771 89.2349 166.229 89.2349C166.719 89.2349 167.176 89.3002 167.569 89.4635C167.961 89.6268 168.32 89.8555 168.647 90.1821L168.451 90.4107Z" fill="white"/>
<path d="M79.9542 103.868C79.9216 103.933 79.8889 103.966 79.8562 103.998C79.8235 104.031 79.7582 104.031 79.7255 104.031C79.6601 104.031 79.5948 103.998 79.4967 103.933C79.3987 103.868 79.3006 103.802 79.2026 103.737C79.1046 103.672 78.9412 103.606 78.7451 103.541C78.5817 103.476 78.3529 103.443 78.1242 103.443C77.8954 103.443 77.6993 103.476 77.5033 103.541C77.3399 103.606 77.1765 103.704 77.0457 103.802C76.915 103.9 76.8497 104.031 76.7843 104.194C76.7189 104.325 76.6863 104.488 76.6863 104.652C76.6863 104.88 76.7516 105.044 76.8497 105.174C76.9477 105.305 77.1111 105.436 77.2745 105.534C77.4379 105.632 77.634 105.73 77.8627 105.795C78.0915 105.86 78.3203 105.958 78.549 106.023C78.7778 106.089 79.0065 106.187 79.2353 106.285C79.464 106.383 79.6601 106.513 79.8235 106.644C79.9869 106.807 80.1503 106.971 80.2484 107.199C80.3464 107.428 80.4118 107.689 80.4118 108.016C80.4118 108.343 80.3464 108.669 80.2484 108.963C80.1176 109.257 79.9542 109.518 79.7582 109.747C79.5294 109.976 79.268 110.139 78.9412 110.27C78.6144 110.4 78.2549 110.466 77.83 110.466C77.3399 110.466 76.8823 110.368 76.4575 110.204C76.0327 110.041 75.7059 109.78 75.4117 109.453L75.7059 108.963C75.7385 108.93 75.7712 108.898 75.8039 108.865C75.8366 108.832 75.9019 108.832 75.9346 108.832C75.9673 108.832 76.0327 108.865 76.098 108.898C76.1634 108.93 76.2287 108.996 76.2941 109.028C76.3595 109.094 76.4575 109.159 76.5555 109.224C76.6536 109.29 76.7516 109.355 76.8823 109.42C77.0131 109.486 77.1438 109.518 77.3072 109.551C77.4706 109.584 77.634 109.616 77.83 109.616C78.0915 109.616 78.2876 109.584 78.4836 109.518C78.6797 109.453 78.8431 109.355 78.9738 109.224C79.1046 109.094 79.2026 108.963 79.268 108.767C79.3333 108.604 79.366 108.408 79.366 108.179C79.366 107.951 79.3006 107.755 79.2026 107.591C79.1046 107.428 78.9412 107.33 78.7778 107.232C78.6144 107.134 78.4183 107.036 78.1895 106.971C77.9608 106.905 77.732 106.84 77.5033 106.742C77.2745 106.644 77.0457 106.579 76.817 106.481C76.5882 106.383 76.3921 106.252 76.2287 106.089C76.0653 105.925 75.9019 105.73 75.8039 105.501C75.7059 105.272 75.6405 104.978 75.6405 104.652C75.6405 104.39 75.7059 104.129 75.8039 103.868C75.9019 103.606 76.0653 103.378 76.2614 103.182C76.4575 102.986 76.7189 102.823 77.0131 102.692C77.3072 102.561 77.634 102.529 78.0261 102.529C78.451 102.529 78.8431 102.594 79.2026 102.725C79.5621 102.855 79.8562 103.051 80.1503 103.312L79.9542 103.868Z" fill="white"/>
<path d="M82.8954 110.368H81.8496V102.659H82.8954V110.368Z" fill="white"/>
<path d="M88.8105 103.868C88.7778 103.933 88.7451 103.966 88.7124 103.998C88.6797 104.031 88.6144 104.031 88.5817 104.031C88.5163 104.031 88.451 103.998 88.3529 103.933C88.2549 103.868 88.1569 103.802 88.0588 103.737C87.9608 103.672 87.7974 103.606 87.6013 103.541C87.4379 103.476 87.2091 103.443 86.9804 103.443C86.7516 103.443 86.5556 103.476 86.3595 103.541C86.1961 103.606 86.0327 103.704 85.902 103.802C85.7712 103.9 85.7059 104.031 85.6405 104.194C85.5752 104.325 85.5425 104.488 85.5425 104.652C85.5425 104.88 85.6078 105.044 85.7059 105.174C85.8039 105.305 85.9673 105.436 86.1307 105.534C86.2941 105.632 86.4902 105.73 86.719 105.795C86.9477 105.86 87.1765 105.958 87.4052 106.023C87.634 106.089 87.8627 106.187 88.0915 106.285C88.3203 106.383 88.5163 106.513 88.6797 106.644C88.8431 106.807 89.0065 106.971 89.1046 107.199C89.2026 107.428 89.268 107.689 89.268 108.016C89.268 108.343 89.2026 108.669 89.1046 108.963C88.9739 109.257 88.8105 109.518 88.6144 109.747C88.3856 109.976 88.1242 110.139 87.7974 110.27C87.4706 110.4 87.1111 110.466 86.6863 110.466C86.1961 110.466 85.7386 110.368 85.3137 110.204C84.8889 110.041 84.5621 109.78 84.268 109.453L84.5621 108.963C84.5948 108.93 84.6274 108.898 84.6601 108.865C84.6928 108.832 84.7582 108.832 84.7909 108.832C84.8235 108.832 84.8889 108.865 84.9543 108.898C85.0196 108.93 85.085 108.996 85.1503 109.028C85.2157 109.094 85.3137 109.159 85.4118 109.224C85.5098 109.29 85.6078 109.355 85.7386 109.42C85.8693 109.486 86 109.518 86.1634 109.551C86.3268 109.584 86.4902 109.616 86.6863 109.616C86.9477 109.616 87.1438 109.584 87.3399 109.518C87.5359 109.453 87.6993 109.355 87.8301 109.224C87.9608 109.094 88.0588 108.963 88.1242 108.767C88.1895 108.604 88.2222 108.408 88.2222 108.179C88.2222 107.951 88.1569 107.755 88.0588 107.591C87.9608 107.428 87.7974 107.33 87.634 107.232C87.4706 107.134 87.2745 107.036 87.0458 106.971C86.817 106.905 86.5882 106.84 86.3595 106.742C86.1307 106.644 85.902 106.579 85.6732 106.481C85.4444 106.383 85.2484 106.252 85.085 106.089C84.9216 105.925 84.7582 105.73 84.6601 105.501C84.5621 105.272 84.4967 104.978 84.4967 104.652C84.4967 104.39 84.5621 104.129 84.6601 103.868C84.7582 103.606 84.9216 103.378 85.1177 103.182C85.3137 102.986 85.5752 102.823 85.8693 102.692C86.1634 102.561 86.4902 102.529 86.8824 102.529C87.3072 102.529 87.6994 102.594 88.0588 102.725C88.4183 102.855 88.7124 103.051 89.0065 103.312L88.8105 103.868Z" fill="white"/>
<path d="M95.9346 103.541H93.4183V110.4H92.3725V103.541H89.8562V102.659H95.9019V103.541H95.9346Z" fill="white"/>
<path d="M101.85 109.518V110.368H97.0784V102.659H101.85V103.508H98.1242V106.089H101.131V106.905H98.1242V109.551H101.85V109.518Z" fill="white"/>
<path d="M111.359 102.659V110.368H110.444V104.684C110.444 104.619 110.444 104.521 110.444 104.456C110.444 104.358 110.444 104.292 110.477 104.194L107.83 109.028C107.732 109.192 107.634 109.257 107.438 109.257H107.275C107.111 109.257 106.98 109.192 106.882 109.028L104.17 104.194C104.203 104.39 104.203 104.554 104.203 104.717V110.4H103.288V102.692H104.072C104.17 102.692 104.235 102.692 104.301 102.725C104.366 102.757 104.399 102.79 104.431 102.888L107.111 107.657C107.144 107.755 107.209 107.82 107.242 107.918C107.275 108.016 107.307 108.114 107.373 108.212C107.405 108.114 107.438 108.016 107.471 107.918C107.503 107.82 107.569 107.722 107.601 107.657L110.216 102.92C110.248 102.822 110.314 102.79 110.346 102.757C110.412 102.725 110.477 102.725 110.575 102.725H111.359V102.659Z" fill="white"/>
<path d="M119.627 110.368H118.81C118.712 110.368 118.647 110.335 118.582 110.302C118.516 110.27 118.484 110.204 118.451 110.139L117.732 108.277H114.268L113.549 110.139C113.516 110.204 113.484 110.27 113.418 110.302C113.353 110.368 113.288 110.368 113.19 110.368H112.373L115.477 102.659H116.523L119.627 110.368ZM117.438 107.526L116.229 104.39C116.196 104.292 116.163 104.194 116.131 104.064C116.098 103.933 116.065 103.802 116.033 103.672C115.967 103.966 115.869 104.194 115.804 104.39L114.595 107.526H117.438Z" fill="white"/>
<path d="M124.595 103.868C124.562 103.933 124.529 103.966 124.497 103.998C124.464 104.031 124.399 104.031 124.366 104.031C124.301 104.031 124.235 103.998 124.137 103.933C124.039 103.868 123.941 103.802 123.843 103.737C123.745 103.672 123.582 103.606 123.386 103.541C123.222 103.476 122.993 103.443 122.765 103.443C122.536 103.443 122.34 103.476 122.144 103.541C121.98 103.606 121.817 103.704 121.686 103.802C121.556 103.9 121.49 104.031 121.425 104.194C121.359 104.325 121.327 104.488 121.327 104.652C121.327 104.88 121.392 105.044 121.49 105.174C121.588 105.305 121.752 105.436 121.915 105.534C122.078 105.632 122.274 105.73 122.503 105.795C122.732 105.86 122.961 105.958 123.19 106.023C123.418 106.089 123.647 106.187 123.876 106.285C124.105 106.383 124.301 106.513 124.464 106.644C124.627 106.807 124.791 106.971 124.889 107.199C124.987 107.428 125.052 107.689 125.052 108.016C125.052 108.343 124.987 108.669 124.889 108.963C124.758 109.257 124.595 109.518 124.399 109.747C124.203 109.976 123.908 110.139 123.582 110.27C123.255 110.4 122.895 110.466 122.471 110.466C121.98 110.466 121.523 110.368 121.098 110.204C120.673 110.041 120.346 109.78 120.052 109.453L120.346 108.963C120.379 108.93 120.412 108.898 120.444 108.865C120.477 108.832 120.542 108.832 120.575 108.832C120.608 108.832 120.673 108.865 120.739 108.898C120.804 108.93 120.869 108.996 120.935 109.028C121 109.094 121.098 109.159 121.196 109.224C121.294 109.29 121.392 109.355 121.523 109.42C121.654 109.486 121.784 109.518 121.948 109.551C122.111 109.584 122.274 109.616 122.471 109.616C122.732 109.616 122.928 109.584 123.124 109.518C123.32 109.453 123.484 109.355 123.614 109.224C123.745 109.094 123.843 108.963 123.908 108.767C123.974 108.604 124.007 108.408 124.007 108.179C124.007 107.951 123.941 107.755 123.843 107.591C123.745 107.428 123.582 107.33 123.418 107.232C123.255 107.134 123.059 107.036 122.83 106.971C122.601 106.905 122.373 106.84 122.144 106.742C121.915 106.644 121.686 106.579 121.457 106.481C121.229 106.383 121.033 106.252 120.869 106.089C120.706 105.925 120.542 105.73 120.444 105.501C120.346 105.272 120.281 104.978 120.281 104.652C120.281 104.39 120.346 104.129 120.444 103.868C120.542 103.606 120.706 103.378 120.902 103.182C121.098 102.986 121.359 102.823 121.654 102.692C121.948 102.561 122.274 102.529 122.667 102.529C123.091 102.529 123.484 102.594 123.843 102.725C124.203 102.855 124.497 103.051 124.791 103.312L124.595 103.868Z" fill="white"/>
<path d="M92.5033 85.0213H110.935L129.235 50.7253H110.804L92.5033 85.0213Z" fill="#098770"/>
<path d="M81.7189 85.0213H97.8301L113.876 54.9388H97.732L81.7189 85.0213Z" fill="#25B56E"/>
<path d="M71.2614 85.0213H84.7582L98.1242 59.9036H84.6601L71.2614 85.0213Z" fill="#6CC067"/>
<path d="M108.549 54.9388L92.5033 85.0213H97.8301L113.876 54.9388H108.549Z" fill="#00824D"/>
<path d="M95.085 59.9036L81.7189 85.0213H84.7582L98.1242 59.9036H95.085Z" fill="#00AB53"/>
<path d="M3.322 72.784V76H2.164V67.402H4.702C5.246 67.402 5.718 67.466 6.118 67.594C6.522 67.718 6.856 67.896 7.12 68.128C7.384 68.36 7.58 68.64 7.708 68.968C7.84 69.296 7.906 69.662 7.906 70.066C7.906 70.466 7.836 70.832 7.696 71.164C7.556 71.496 7.35 71.782 7.078 72.022C6.81 72.262 6.476 72.45 6.076 72.586C5.676 72.718 5.218 72.784 4.702 72.784H3.322ZM3.322 71.86H4.702C5.034 71.86 5.326 71.816 5.578 71.728C5.834 71.64 6.048 71.518 6.22 71.362C6.392 71.202 6.522 71.012 6.61 70.792C6.698 70.572 6.742 70.33 6.742 70.066C6.742 69.518 6.572 69.09 6.232 68.782C5.896 68.474 5.386 68.32 4.702 68.32H3.322V71.86Z" fill="#888888"/>
<path d="M11.4962 69.826C11.9402 69.826 12.3402 69.9 12.6962 70.048C13.0562 70.196 13.3602 70.406 13.6082 70.678C13.8602 70.95 14.0522 71.28 14.1842 71.668C14.3202 72.052 14.3882 72.482 14.3882 72.958C14.3882 73.438 14.3202 73.87 14.1842 74.254C14.0522 74.638 13.8602 74.966 13.6082 75.238C13.3602 75.51 13.0562 75.72 12.6962 75.868C12.3402 76.012 11.9402 76.084 11.4962 76.084C11.0522 76.084 10.6502 76.012 10.2902 75.868C9.93416 75.72 9.63016 75.51 9.37816 75.238C9.12616 74.966 8.93216 74.638 8.79616 74.254C8.66016 73.87 8.59216 73.438 8.59216 72.958C8.59216 72.482 8.66016 72.052 8.79616 71.668C8.93216 71.28 9.12616 70.95 9.37816 70.678C9.63016 70.406 9.93416 70.196 10.2902 70.048C10.6502 69.9 11.0522 69.826 11.4962 69.826ZM11.4962 75.25C12.0962 75.25 12.5442 75.05 12.8402 74.65C13.1362 74.246 13.2842 73.684 13.2842 72.964C13.2842 72.24 13.1362 71.676 12.8402 71.272C12.5442 70.868 12.0962 70.666 11.4962 70.666C11.1922 70.666 10.9282 70.718 10.7042 70.822C10.4802 70.926 10.2922 71.076 10.1402 71.272C9.99216 71.468 9.88016 71.71 9.80416 71.998C9.73216 72.282 9.69616 72.604 9.69616 72.964C9.69616 73.324 9.73216 73.646 9.80416 73.93C9.88016 74.214 9.99216 74.454 10.1402 74.65C10.2922 74.842 10.4802 74.99 10.7042 75.094C10.9282 75.198 11.1922 75.25 11.4962 75.25Z" fill="#888888"/>
<path d="M14.9121 69.922H15.7521C15.8401 69.922 15.9121 69.944 15.9681 69.988C16.0241 70.032 16.0621 70.084 16.0821 70.144L17.2461 74.056C17.2781 74.2 17.3081 74.34 17.3361 74.476C17.3641 74.608 17.3881 74.742 17.4081 74.878C17.4401 74.742 17.4761 74.608 17.5161 74.476C17.5561 74.34 17.5981 74.2 17.6421 74.056L18.9261 70.12C18.9461 70.06 18.9801 70.01 19.0281 69.97C19.0801 69.93 19.1441 69.91 19.2201 69.91H19.6821C19.7621 69.91 19.8281 69.93 19.8801 69.97C19.9321 70.01 19.9681 70.06 19.9881 70.12L21.2421 74.056C21.2861 74.196 21.3241 74.334 21.3561 74.47C21.3921 74.606 21.4261 74.74 21.4581 74.872C21.4781 74.74 21.5041 74.602 21.5361 74.458C21.5681 74.314 21.6021 74.18 21.6381 74.056L22.8261 70.144C22.8461 70.08 22.8841 70.028 22.9401 69.988C22.9961 69.944 23.0621 69.922 23.1381 69.922H23.9421L21.9741 76H21.1281C21.0241 76 20.9521 75.932 20.9121 75.796L19.5681 71.674C19.5361 71.582 19.5101 71.49 19.4901 71.398C19.4701 71.302 19.4501 71.208 19.4301 71.116C19.4101 71.208 19.3901 71.302 19.3701 71.398C19.3501 71.494 19.3241 71.588 19.2921 71.68L17.9301 75.796C17.8861 75.932 17.8041 76 17.6841 76H16.8801L14.9121 69.922Z" fill="#888888"/>
<path d="M27.2976 69.826C27.6616 69.826 27.9976 69.888 28.3056 70.012C28.6136 70.132 28.8796 70.308 29.1036 70.54C29.3276 70.768 29.5016 71.052 29.6256 71.392C29.7536 71.728 29.8176 72.112 29.8176 72.544C29.8176 72.712 29.7996 72.824 29.7636 72.88C29.7276 72.936 29.6596 72.964 29.5596 72.964H25.5156C25.5236 73.348 25.5756 73.682 25.6716 73.966C25.7676 74.25 25.8996 74.488 26.0676 74.68C26.2356 74.868 26.4356 75.01 26.6676 75.106C26.8996 75.198 27.1596 75.244 27.4476 75.244C27.7156 75.244 27.9456 75.214 28.1376 75.154C28.3336 75.09 28.5016 75.022 28.6416 74.95C28.7816 74.878 28.8976 74.812 28.9896 74.752C29.0856 74.688 29.1676 74.656 29.2356 74.656C29.3236 74.656 29.3916 74.69 29.4396 74.758L29.7396 75.148C29.6076 75.308 29.4496 75.448 29.2656 75.568C29.0816 75.684 28.8836 75.78 28.6716 75.856C28.4636 75.932 28.2476 75.988 28.0236 76.024C27.7996 76.064 27.5776 76.084 27.3576 76.084C26.9376 76.084 26.5496 76.014 26.1936 75.874C25.8416 75.73 25.5356 75.522 25.2756 75.25C25.0196 74.974 24.8196 74.634 24.6756 74.23C24.5316 73.826 24.4596 73.362 24.4596 72.838C24.4596 72.414 24.5236 72.018 24.6516 71.65C24.7836 71.282 24.9716 70.964 25.2156 70.696C25.4596 70.424 25.7576 70.212 26.1096 70.06C26.4616 69.904 26.8576 69.826 27.2976 69.826ZM27.3216 70.612C26.8056 70.612 26.3996 70.762 26.1036 71.062C25.8076 71.358 25.6236 71.77 25.5516 72.298H28.8576C28.8576 72.05 28.8236 71.824 28.7556 71.62C28.6876 71.412 28.5876 71.234 28.4556 71.086C28.3236 70.934 28.1616 70.818 27.9696 70.738C27.7816 70.654 27.5656 70.612 27.3216 70.612Z" fill="#888888"/>
<path d="M31.1846 76V69.922H31.7966C31.9126 69.922 31.9926 69.944 32.0366 69.988C32.0806 70.032 32.1106 70.108 32.1266 70.216L32.1986 71.164C32.4066 70.74 32.6626 70.41 32.9666 70.174C33.2746 69.934 33.6346 69.814 34.0466 69.814C34.2146 69.814 34.3666 69.834 34.5026 69.874C34.6386 69.91 34.7646 69.962 34.8806 70.03L34.7426 70.828C34.7146 70.928 34.6526 70.978 34.5566 70.978C34.5006 70.978 34.4146 70.96 34.2986 70.924C34.1826 70.884 34.0206 70.864 33.8126 70.864C33.4406 70.864 33.1286 70.972 32.8766 71.188C32.6286 71.404 32.4206 71.718 32.2526 72.13V76H31.1846Z" fill="#888888"/>
<path d="M38.4304 69.826C38.7944 69.826 39.1304 69.888 39.4384 70.012C39.7464 70.132 40.0124 70.308 40.2364 70.54C40.4604 70.768 40.6344 71.052 40.7584 71.392C40.8864 71.728 40.9504 72.112 40.9504 72.544C40.9504 72.712 40.9324 72.824 40.8964 72.88C40.8604 72.936 40.7924 72.964 40.6924 72.964H36.6484C36.6564 73.348 36.7084 73.682 36.8044 73.966C36.9004 74.25 37.0324 74.488 37.2004 74.68C37.3684 74.868 37.5684 75.01 37.8004 75.106C38.0324 75.198 38.2924 75.244 38.5804 75.244C38.8484 75.244 39.0784 75.214 39.2704 75.154C39.4664 75.09 39.6344 75.022 39.7744 74.95C39.9144 74.878 40.0304 74.812 40.1224 74.752C40.2184 74.688 40.3004 74.656 40.3684 74.656C40.4564 74.656 40.5244 74.69 40.5724 74.758L40.8724 75.148C40.7404 75.308 40.5824 75.448 40.3984 75.568C40.2144 75.684 40.0164 75.78 39.8044 75.856C39.5964 75.932 39.3804 75.988 39.1564 76.024C38.9324 76.064 38.7104 76.084 38.4904 76.084C38.0704 76.084 37.6824 76.014 37.3264 75.874C36.9744 75.73 36.6684 75.522 36.4084 75.25C36.1524 74.974 35.9524 74.634 35.8084 74.23C35.6644 73.826 35.5924 73.362 35.5924 72.838C35.5924 72.414 35.6564 72.018 35.7844 71.65C35.9164 71.282 36.1044 70.964 36.3484 70.696C36.5924 70.424 36.8904 70.212 37.2424 70.06C37.5944 69.904 37.9904 69.826 38.4304 69.826ZM38.4544 70.612C37.9384 70.612 37.5324 70.762 37.2364 71.062C36.9404 71.358 36.7564 71.77 36.6844 72.298H39.9904C39.9904 72.05 39.9564 71.824 39.8884 71.62C39.8204 71.412 39.7204 71.234 39.5884 71.086C39.4564 70.934 39.2944 70.818 39.1024 70.738C38.9144 70.654 38.6984 70.612 38.4544 70.612Z" fill="#888888"/>
<path d="M46.5954 76C46.4434 76 46.3474 75.926 46.3074 75.778L46.2114 75.04C45.9514 75.356 45.6534 75.61 45.3174 75.802C44.9854 75.99 44.6034 76.084 44.1714 76.084C43.8234 76.084 43.5074 76.018 43.2234 75.886C42.9394 75.75 42.6974 75.552 42.4974 75.292C42.2974 75.032 42.1434 74.708 42.0354 74.32C41.9274 73.932 41.8734 73.486 41.8734 72.982C41.8734 72.534 41.9334 72.118 42.0534 71.734C42.1734 71.346 42.3454 71.01 42.5694 70.726C42.7974 70.442 43.0734 70.22 43.3974 70.06C43.7214 69.896 44.0894 69.814 44.5014 69.814C44.8734 69.814 45.1914 69.878 45.4554 70.006C45.7194 70.13 45.9554 70.306 46.1634 70.534V67.162H47.2314V76H46.5954ZM44.5254 75.22C44.8734 75.22 45.1774 75.14 45.4374 74.98C45.7014 74.82 45.9434 74.594 46.1634 74.302V71.362C45.9674 71.098 45.7514 70.914 45.5154 70.81C45.2834 70.702 45.0254 70.648 44.7414 70.648C44.1734 70.648 43.7374 70.85 43.4334 71.254C43.1294 71.658 42.9774 72.234 42.9774 72.982C42.9774 73.378 43.0114 73.718 43.0794 74.002C43.1474 74.282 43.2474 74.514 43.3794 74.698C43.5114 74.878 43.6734 75.01 43.8654 75.094C44.0574 75.178 44.2774 75.22 44.5254 75.22Z" fill="#888888"/>
<path d="M51.3768 76V67.162H52.4508V70.798C52.7028 70.506 52.9908 70.272 53.3148 70.096C53.6428 69.916 54.0168 69.826 54.4368 69.826C54.7888 69.826 55.1068 69.892 55.3908 70.024C55.6748 70.156 55.9168 70.354 56.1168 70.618C56.3168 70.878 56.4708 71.202 56.5788 71.59C56.6868 71.974 56.7408 72.418 56.7408 72.922C56.7408 73.37 56.6808 73.788 56.5608 74.176C56.4408 74.56 56.2668 74.894 56.0388 75.178C55.8148 75.458 55.5388 75.68 55.2108 75.844C54.8868 76.004 54.5208 76.084 54.1128 76.084C53.7208 76.084 53.3868 76.008 53.1108 75.856C52.8388 75.704 52.6008 75.492 52.3968 75.22L52.3428 75.772C52.3108 75.924 52.2188 76 52.0668 76H51.3768ZM54.0888 70.678C53.7408 70.678 53.4348 70.758 53.1708 70.918C52.9108 71.078 52.6708 71.304 52.4508 71.596V74.536C52.6428 74.8 52.8548 74.986 53.0868 75.094C53.3228 75.202 53.5848 75.256 53.8728 75.256C54.4408 75.256 54.8768 75.054 55.1808 74.65C55.4848 74.246 55.6368 73.67 55.6368 72.922C55.6368 72.526 55.6008 72.186 55.5288 71.902C55.4608 71.618 55.3608 71.386 55.2288 71.206C55.0968 71.022 54.9348 70.888 54.7428 70.804C54.5508 70.72 54.3328 70.678 54.0888 70.678Z" fill="#888888"/>
<path d="M59.6736 77.794C59.6376 77.874 59.5916 77.938 59.5356 77.986C59.4836 78.034 59.4016 78.058 59.2896 78.058H58.4976L59.6076 75.646L57.0996 69.922H58.0236C58.1156 69.922 58.1876 69.946 58.2396 69.994C58.2916 70.038 58.3296 70.088 58.3536 70.144L59.9796 73.972C60.0156 74.06 60.0456 74.148 60.0696 74.236C60.0976 74.324 60.1216 74.414 60.1416 74.506C60.1696 74.414 60.1976 74.324 60.2256 74.236C60.2536 74.148 60.2856 74.058 60.3216 73.966L61.8996 70.144C61.9236 70.08 61.9636 70.028 62.0196 69.988C62.0796 69.944 62.1436 69.922 62.2116 69.922H63.0636L59.6736 77.794Z" fill="#888888"/>
</svg>
